<svg xmlns="http://www.w3.org/2000/svg" height="1000" width="1000"><path d="M863.3 560.6c-74.6-325.9-364-252.1-364-252.1-3.1.8-6.2 1.7-9.2 2.6-132.8 40-265.4 80.5-398.3 120.1-30.4 9.1-40 31.2-24.6 55.8 24.4 39.1 55.1 73.7 83.2 110.2 12.2 15.9 29 29.9 35.9 48C221.2 735.9 303 790.8 395 778.7c40.2-5.3 79.6-16.7 126.3-26.9-12.7 61-24 115.7-35.4 170.3-13.5 64.6-4 77.5 57.5 77.7 218.3 1 374.7-214 319.9-439.2zM422.2 706.5c-60 15-136.9-7.8-165.6-70.7 43.9-13.3 86.5-27.2 129.6-39.1 61.9-17.2 123.5-38.4 186.5-47.8 70.1-10.5 137.9 36.6 155.5 88.5-42 5.9-86.8 8.5-129.9 18.9-67.1 16.2-109.2 33.5-176.1 50.2zM742 840.1c-47.1 62.6-112.3 95.8-195.7 92.8 13.9-65 20.6-128.7 43.1-185.5 8.8-22.2 52.8-39.6 80.7-39.6 25.9 0 62.4 19.8 74.7 42.7 12.3 22.9 12 70-2.8 89.6zm47.4-229.8C733.2 508.5 622.8 460 514.6 491.1c-74.3 21.4-147.9 45.3-222.2 66.6-66.5 19.1-125.5-8.5-154.8-74.1 121.1-36.8 237.8-77.1 356.8-107.1 156.1-39.3 303 84.8 317.3 269.1-10.1-15.9-16.8-25.3-22.3-35.3zM790.7 0c-82.2 0-149.2 66.9-149.2 149.2 0 82.2 66.9 149.2 149.2 149.2s149.2-66.9 149.2-149.2C939.9 66.9 873 0 790.7 0zm0 246c-53.4 0-96.9-43.5-96.9-96.9 0-53.4 43.5-96.9 96.9-96.9s96.9 43.5 96.9 96.9c0 53.5-43.4 96.9-96.9 96.9z"/></svg>